<?xml version="1.0" encoding="UTF-8"?>
<svg version="1.1" xmlns="http://www.w3.org/2000/svg" width="512" height="512">
<path d="M0 0 C2.26664246 -0.0032207 4.53328472 -0.00658536 6.79992676 -0.01008606 C11.54045085 -0.01605218 16.28095679 -0.01792865 21.02148438 -0.01733398 C27.04124517 -0.01723272 33.06088708 -0.03085911 39.08061981 -0.04810619 C43.76176468 -0.05932834 48.44288177 -0.06125006 53.1240387 -0.06072426 C55.34038196 -0.06189005 57.55672628 -0.06623113 59.77305603 -0.07405663 C77.31178551 -0.13017005 94.8602914 0.36912349 112.03125 4.29296875 C112.97323242 4.50469727 113.91521484 4.71642578 114.88574219 4.93457031 C161.13269298 15.79016028 203.94109281 42.05776103 232.78125 80.16796875 C233.22791016 80.75465332 233.67457031 81.34133789 234.13476562 81.94580078 C264.71292423 122.48565314 275.89554703 168.76493987 275.984375 218.73828125 C275.98720238 219.82014584 275.99002975 220.90201042 275.99294281 222.01665878 C276.00787479 227.75248196 276.01713966 233.48828043 276.02148438 239.22412109 C276.0258541 243.91170093 276.03969564 248.59909516 276.0625 253.28662109 C276.30579095 304.32915218 276.30579095 304.32915218 272.78125 324.16796875 C272.6652948 324.84927856 272.5493396 325.53058838 272.42987061 326.23254395 C271.79699912 329.85825025 271.01318335 333.41750377 270.09375 336.98046875 C269.83883789 337.99778076 269.58392578 339.01509277 269.32128906 340.06323242 C255.63318668 392.57926443 220.41137146 438.17998577 173.85351562 465.7734375 C136.41228047 487.30875944 97.08352147 494.53461932 54.40625 494.43359375 C52.33805293 494.43494766 50.26985617 494.43689415 48.20166016 494.43939209 C43.90589309 494.44230932 39.61021025 494.43815712 35.31445312 494.42871094 C29.87583709 494.41731861 24.43741865 494.42389661 18.99880981 494.43585587 C14.73965024 494.44316753 10.48053563 494.44074445 6.22137451 494.43560028 C4.21881078 494.43428934 2.21624263 494.43581893 0.21368408 494.44055939 C-60.89691818 494.55356217 -113.54937265 475.2021742 -158.21875 433.16796875 C-158.87746094 432.55179687 -159.53617188 431.935625 -160.21484375 431.30078125 C-174.65986005 417.35616967 -185.89386792 399.8250397 -195.21875 382.16796875 C-195.83363281 381.03101563 -196.44851562 379.8940625 -197.08203125 378.72265625 C-204.01840988 365.46509886 -208.83343183 351.60200258 -212.46875 337.10546875 C-212.70279541 336.20530029 -212.93684082 335.30513184 -213.17797852 334.37768555 C-213.98163305 330.99289189 -214.62901556 327.5950146 -215.21875 324.16796875 C-215.35218811 323.4153476 -215.48562622 322.66272644 -215.62310791 321.88729858 C-219.40359242 299.33421358 -218.67762763 276.35898057 -218.60986328 253.57348633 C-218.59276476 247.76975841 -218.60265203 241.96644682 -218.62058067 236.16273403 C-218.63155736 231.60920727 -218.62790969 227.05577497 -218.6201973 222.50224495 C-218.6182339 220.36539723 -218.6205139 218.22854016 -218.62763596 216.09170341 C-218.678828 196.43367498 -217.41695024 176.53510862 -212.53125 157.41796875 C-212.27778809 156.39904541 -212.02432617 155.38012207 -211.76318359 154.33032227 C-207.56567547 138.12320708 -201.15442932 122.87705075 -193.21875 108.16796875 C-192.90470215 107.57467773 -192.5906543 106.98138672 -192.26708984 106.37011719 C-179.36375568 82.11371998 -160.11846061 59.74072273 -138.21875 43.16796875 C-137.63206543 42.72130859 -137.04538086 42.27464844 -136.44091797 41.81445312 C-106.86336478 19.5048723 -72.03271258 5.45938664 -35.21875 1.16796875 C-34.47509186 1.08023193 -33.73143372 0.99249512 -32.96524048 0.90209961 C-22.00681036 -0.19191572 -11.00005031 0.00369289 0 0 Z " fill="#1A2C6F" transform="translate(227.21875,8.83203125)"/>
<path d="M0 0 C12.34301693 3.84359517 25.12841338 9.21859355 36.09277344 16.15380859 C40.4195756 18.87831538 43.49288884 19.52908099 48.57421875 19.41015625 C50.37632812 19.39082031 50.37632812 19.39082031 52.21484375 19.37109375 C55.36812539 19.19848316 58.34901155 18.65860632 61.44140625 18.02734375 C68.03644849 16.76925791 74.502299 16.73514591 81.19921875 16.78515625 C83.09873291 16.79095703 83.09873291 16.79095703 85.03662109 16.796875 C93.53487278 16.87416111 101.92377825 17.31595538 110.36279297 18.32324219 C112.68129936 18.59831092 114.99879144 18.82694491 117.32421875 19.03515625 C118.18080078 19.12684082 119.03738281 19.21852539 119.91992188 19.31298828 C128.1280148 19.81753593 133.56982197 16.92095691 140.57421875 12.91015625 C142.77193856 11.70840502 144.97245521 10.51175396 147.17578125 9.3203125 C148.22926758 8.74812988 149.28275391 8.17594727 150.36816406 7.58642578 C161.50346597 1.74287537 173.5756249 -3.21005524 186.32421875 -1.96484375 C190.96624181 -0.18704769 192.96668367 2.72655765 195.32421875 7.03515625 C196.92240784 12.44924024 197.61519449 17.39792781 197.6328125 23.05078125 C197.65798231 24.56510785 197.68338018 26.07943068 197.70898438 27.59375 C197.73756459 29.93439658 197.76163665 32.2749776 197.78051758 34.61572266 C197.91884174 49.02271641 200.18162008 60.4949841 206.51171875 73.59765625 C207.42687373 75.5132449 208.33727186 77.43111562 209.2421875 79.3515625 C209.64203857 80.18115479 210.04188965 81.01074707 210.45385742 81.86547852 C211.32421875 84.03515625 211.32421875 84.03515625 211.32421875 87.03515625 C212.0200708 86.71135986 212.71592285 86.38756348 213.43286133 86.05395508 C218.76951339 84.17353212 224.4084249 84.7081924 230.01171875 84.72265625 C231.24083984 84.70654297 232.46996094 84.69042969 233.73632812 84.67382812 C243.76020175 84.66848206 253.87728209 85.62454611 261.32421875 93.03515625 C267.95309251 101.55370896 269.15516425 108.26797517 268.32421875 119.03515625 C267.06139818 124.17303194 265.32810962 127.19516593 261.26171875 130.59765625 C258.32421875 132.03515625 258.32421875 132.03515625 255.32421875 132.03515625 C255.36804688 133.27910156 255.411875 134.52304688 255.45703125 135.8046875 C255.45023206 141.6032653 254.40095351 147.06632352 253.19921875 152.72265625 C252.97476074 153.78049316 252.75030273 154.83833008 252.51904297 155.92822266 C249.92819631 167.55765188 246.17240771 177.50988018 238.546875 186.8515625 C237.09168351 188.9765819 237.09168351 188.9765819 237.515625 191.484375 C238.3485952 194.11205393 239.24589399 196.69861621 240.19921875 199.28515625 C248.89919279 225.16281626 246.41728122 252.59241461 234.32421875 277.03515625 C229.80267801 284.75580861 224.47660705 291.55551325 218.32421875 298.03515625 C220.12669714 301.72394924 222.15183995 305.26165708 224.203125 308.81640625 C226.95197843 314.25664579 227.14570177 320.35465359 225.828125 326.2578125 C224.30780684 330.85312447 222.60946459 333.51990325 218.32421875 336.03515625 C216.07488779 336.8833328 213.81825221 337.61818493 211.515625 338.30859375 C209.11506315 339.02704862 209.11506315 339.02704862 206.32421875 340.72265625 C201.89446375 342.66067406 196.92188921 342.93782166 192.30078125 341.33203125 C191.64851563 341.2340625 190.99625 341.13609375 190.32421875 341.03515625 C189.70933594 341.504375 189.09445312 341.97359375 188.4609375 342.45703125 C185.58894892 344.57820746 183.66403233 344.3710835 180.13671875 344.28515625 C179.07066406 344.2696875 178.00460937 344.25421875 176.90625 344.23828125 C174.32421875 344.03515625 174.32421875 344.03515625 173.32421875 343.03515625 C171.76384354 342.90292106 170.20054844 342.80447096 168.63671875 342.72265625 C163.86694755 342.27974892 161.00309581 341.26538977 157.32421875 338.03515625 C154.32421875 333.83515625 154.32421875 333.83515625 154.32421875 331.03515625 C153.33808594 331.28910156 152.35195313 331.54304688 151.3359375 331.8046875 C128.8877215 337.34186014 106.65395756 338.32746183 83.63671875 338.41015625 C82.56559845 338.41801147 81.49447815 338.4258667 80.39089966 338.43395996 C61.8487452 338.53963448 43.86727238 336.82695873 25.63671875 333.47265625 C21.31687455 332.72858808 21.31687455 332.72858808 17.4140625 334.1796875 C15.8452696 335.95062473 15.8452696 335.95062473 14.32421875 339.03515625 C11.16696119 341.13999462 9.92571592 341.34403642 6.26171875 341.59765625 C2.65661832 341.81149071 2.65661832 341.81149071 -0.67578125 343.03515625 C-2.34022586 343.13074935 -4.00860088 343.1650027 -5.67578125 343.16015625 C-6.56265625 343.16273438 -7.44953125 343.1653125 -8.36328125 343.16796875 C-10.67578125 343.03515625 -10.67578125 343.03515625 -12.67578125 342.03515625 C-14.44379867 341.9412238 -16.21230906 341.85215978 -17.98193359 341.79614258 C-32.165706 341.307103 -44.49437279 336.77105499 -54.48828125 326.34765625 C-58.7647202 321.31832311 -61.3519357 316.17674806 -63.67578125 310.03515625 C-63.99804688 309.24238281 -64.3203125 308.44960938 -64.65234375 307.6328125 C-67.39436358 300.57712732 -69.35398175 293.28949755 -71.38989258 286.00732422 C-72.88097097 280.70414475 -74.4938927 275.48899528 -76.30078125 270.28515625 C-81.01635341 256.33682954 -84.34770353 243.0716291 -81.92578125 228.28515625 C-81.45339273 224.79577974 -81.97247149 223.00754449 -83.61328125 219.91015625 C-86.78047376 213.57577124 -86.6438928 206.9395177 -85.67578125 200.03515625 C-82.37303862 191.36078316 -74.21409029 185.73754987 -66.23828125 181.59765625 C-62.67578125 180.03515625 -62.67578125 180.03515625 -60.67578125 180.03515625 C-60.4128125 179.45507812 -60.14984375 178.875 -59.87890625 178.27734375 C-56.56141186 172.09474057 -50.78134241 166.78451547 -45.67578125 162.03515625 C-45.01578125 162.03515625 -44.35578125 162.03515625 -43.67578125 162.03515625 C-44.00578125 161.04515625 -44.33578125 160.05515625 -44.67578125 159.03515625 C-45.46443453 148.52483467 -45.46443453 148.52483467 -42.98828125 143.84765625 C-41.4479005 140.54684035 -41.71613792 140.027792 -42.86328125 136.72265625 C-43.46570065 135.15948176 -44.06985792 133.59697587 -44.67578125 132.03515625 C-51.97518813 108.8334701 -41.87037315 85.23415854 -32.015625 64.55078125 C-31.57347656 63.6175 -31.13132813 62.68421875 -30.67578125 61.72265625 C-30.30453125 60.98402344 -29.93328125 60.24539062 -29.55078125 59.484375 C-27.45255503 53.61121499 -27.53727311 47.1584155 -27.5 40.984375 C-27.47680043 39.46548095 -27.45268304 37.9466007 -27.42773438 36.42773438 C-27.39276029 34.07811184 -27.3633176 31.7290008 -27.34985352 29.37915039 C-27.21206752 9.17972362 -27.21206752 9.17972362 -21.37084961 1.26757812 C-15.34782502 -4.65063627 -7.21345407 -1.94591295 0 0 Z " fill="#F7CA00" transform="translate(164.67578125,86.96484375)"/>
<path d="M0 0 C6.71804366 2.23934789 11.47614687 9.05650271 14.77734375 15.05078125 C18.27116776 22.59008568 20.14961578 30.65138586 22.22265625 38.671875 C23.20861013 42.47976684 24.29562999 46.20892767 25.58984375 49.92578125 C37.78850429 85.59135655 37.78850429 85.59135655 29.3359375 103.5234375 C23.1606901 114.67926591 14.61563832 119.75864664 2.609375 123.4765625 C-7.42965312 125.39892959 -16.84110731 123.73643018 -25.58984375 118.578125 C-37.26474379 110.42386602 -42.35795793 100.52332734 -45.77050781 87.07568359 C-47.12431961 81.77129767 -48.72913219 76.5723611 -50.41015625 71.36328125 C-53.01616444 63.25397774 -55.29175402 55.1128284 -57.41015625 46.86328125 C-57.75046875 45.69925781 -57.75046875 45.69925781 -58.09765625 44.51171875 C-60.01791232 37.81749272 -60.21104314 30.61660708 -58.41015625 23.86328125 C-57.17265625 23.90453125 -55.93515625 23.94578125 -54.66015625 23.98828125 C-46.06731998 23.9612172 -36.53685973 23.11815177 -29.41015625 17.86328125 C-28.94351563 17.17878906 -28.476875 16.49429687 -27.99609375 15.7890625 C-25.95084912 13.30555117 -24.74260666 13.27844082 -21.59765625 12.92578125 C-16.34726049 12.05580288 -14.15671182 10.60983682 -10.41015625 6.86328125 C-3.35647527 -0.19039973 -3.35647527 -0.19039973 0 0 Z " fill="#F8CB03" transform="translate(149.41015625,295.13671875)"/>
<path d="M0 0 C7.26810925 3.77941681 10.57207542 9.96446334 14.1484375 17.1171875 C14.1884295 19.11678762 14.19190549 21.11765992 14.1484375 23.1171875 C14.87160156 23.36339844 15.59476562 23.60960937 16.33984375 23.86328125 C26.75495344 28.51314246 33.89392551 39.18871983 38.171875 49.4140625 C39.60580383 53.38317751 40.78002286 57.41866495 41.93725586 61.47485352 C44.09573482 69.03881627 46.43027183 76.54640012 48.7734375 84.0546875 C49.89944796 87.66377407 51.0249686 91.27289447 52.13964844 94.88549805 C52.76465969 96.88774247 53.40550967 98.88520761 54.07128906 100.87426758 C55.95366277 106.63749458 56.69252498 111.87004277 56.6484375 117.9296875 C56.64634277 118.80133545 56.64424805 119.6729834 56.64208984 120.57104492 C56.48542184 127.03688909 55.10096606 132.06385287 52.37109375 137.95703125 C50.95529066 141.61640728 50.55200449 145.12138546 50.2109375 148.9921875 C49.60670428 154.62201432 48.76134299 157.94450978 44.68359375 161.91796875 C41.33587345 164.53310903 39.26175393 165.39063982 35.0859375 165.6796875 C31.48083707 165.89352196 31.48083707 165.89352196 28.1484375 167.1171875 C26.48399289 167.2127806 24.81561787 167.24703395 23.1484375 167.2421875 C22.2615625 167.24476563 21.3746875 167.24734375 20.4609375 167.25 C18.1484375 167.1171875 18.1484375 167.1171875 16.1484375 166.1171875 C14.38042008 166.02325505 12.61190969 165.93419103 10.84228516 165.87817383 C-3.34148725 165.38913425 -15.67015404 160.85308624 -25.6640625 150.4296875 C-29.94050145 145.40035436 -32.52771695 140.25877931 -34.8515625 134.1171875 C-35.17382812 133.32441406 -35.49609375 132.53164063 -35.828125 131.71484375 C-38.57014483 124.65915857 -40.529763 117.3715288 -42.56567383 110.08935547 C-44.05675222 104.786176 -45.66967395 99.57102653 -47.4765625 94.3671875 C-52.19213466 80.41886079 -55.52348478 67.15366035 -53.1015625 52.3671875 C-52.62917398 48.87781099 -53.14825274 47.08957574 -54.7890625 43.9921875 C-57.95625501 37.65780249 -57.81967405 31.02154895 -56.8515625 24.1171875 C-52.61600177 12.99284688 -40.58564398 7.02641555 -30.4765625 2.1796875 C-29.03023437 1.44008789 -29.03023437 1.44008789 -27.5546875 0.68554688 C-17.98634498 -3.93829693 -9.71842189 -4.44533494 0 0 Z M2.73046875 38.71875 C2.31152344 39.24210937 1.89257812 39.76546875 1.4609375 40.3046875 C-1.67519264 44.11889983 -1.67519264 44.11889983 -4.8515625 45.1171875 C-6.18439588 45.22756708 -7.517807 45.33107341 -8.8515625 45.4296875 C-12.17378121 45.76619216 -12.60023824 45.82778381 -14.9140625 48.4921875 C-15.5534375 49.3584375 -16.1928125 50.2246875 -16.8515625 51.1171875 C-25.28790294 55.86262899 -35.35121355 56.4338658 -44.8515625 56.1171875 C-47.71149836 66.84194698 -44.60248062 76.7912612 -41.5390625 87.0546875 C-41.09500775 88.55337228 -40.65099862 90.05207058 -40.20703125 91.55078125 C-39.98192871 92.30858887 -39.75682617 93.06639648 -39.52490234 93.84716797 C-38.66842693 96.73458942 -37.81839702 99.62387638 -36.9699707 102.51367188 C-36.55719063 103.91774338 -36.14296138 105.32138965 -35.72729492 106.72460938 C-34.65585102 110.34653287 -33.60903395 113.97300355 -32.6015625 117.61328125 C-28.77654562 131.32108824 -24.656476 143.25394777 -11.7421875 150.9765625 C-1.13855525 156.40769121 8.71767284 158.10124427 20.3984375 154.4921875 C30.79655262 150.56035741 38.47688923 144.61652013 43.43359375 134.4921875 C50.25475356 118.0627273 46.26399743 104.62106781 41.14941406 88.34716797 C39.82537894 84.07473267 38.58894466 79.77927928 37.35546875 75.47998047 C36.21730912 71.51940862 35.05428881 67.56644407 33.88574219 63.61474609 C33.43720869 62.09537599 32.99172221 60.57509622 32.55175781 59.05322266 C29.54803034 48.71487734 24.65842022 39.95736273 16.1484375 33.1171875 C10.6663688 30.37615315 6.33471145 34.64784227 2.73046875 38.71875 Z " fill="#FD0600" transform="translate(135.8515625,262.8828125)"/>
<path d="M0 0 C3.19445845 0.99138366 4.01174045 2.01970719 5.75 4.9375 C7.98852987 10.81671581 7.81929538 17.21439572 6.0625 23.1875 C-3.43865741 36.14362375 -19.32132281 42.76115744 -34 48 C-34.680625 48.24991699 -35.36125 48.49983398 -36.0625 48.75732422 C-50.66643576 54.04923752 -65.70790044 56.5257755 -81 59 C-83.00011514 59.33264175 -85.0001324 59.66587322 -87 60 C-90.8550866 60.63063294 -94.18286507 60.97102555 -98 60 C-100.22671877 57.69438175 -101.69123457 55.30618339 -103.3203125 52.55078125 C-106.80222484 47.26313297 -112.91312194 44.31285605 -119 43 C-127.91445287 41.79298599 -134.56193087 44.03766775 -142 49 C-145.6010493 52.23885479 -147.92741568 55.64567148 -150 60 C-161.60819959 59.61037293 -172.64957893 58.50882747 -184 56 C-184.80308594 55.82984375 -185.60617188 55.6596875 -186.43359375 55.484375 C-202.93473342 51.96815041 -219.18375341 47.26510414 -234 39 C-234.58079748 28.11542497 -234.58079748 28.11542497 -231 23 C-228.8125 21.625 -228.8125 21.625 -227 21 C-227 20.34 -227 19.68 -227 19 C-225.70692774 19.41228391 -224.41565267 19.83020294 -223.125 20.25 C-222.40570313 20.48203125 -221.68640625 20.7140625 -220.9453125 20.953125 C-218.38058841 21.86472454 -215.89841581 22.87244649 -213.38671875 23.91796875 C-207.92403108 26.11456762 -202.39934159 27.6581646 -196.6875 29.0625 C-195.65004639 29.31926514 -194.61259277 29.57603027 -193.54370117 29.84057617 C-183.45906024 32.25754354 -173.31312942 33.93288845 -163 35 C-161.62521484 35.14248169 -161.62521484 35.14248169 -160.22265625 35.2878418 C-149.95148914 36.21372826 -139.67891801 36.19858406 -129.375 36.1875 C-128.42657227 36.18722809 -127.47814453 36.18695618 -126.50097656 36.18667603 C-105.17607233 36.1586193 -84.0723005 35.250628 -63.05664062 31.37353516 C-61.09967893 31.01810408 -59.13580935 30.70134905 -57.171875 30.38671875 C-38.32326016 27.11828873 -13.57884906 19.17879661 -1.9375 3.0625 C-0.9784375 1.5465625 -0.9784375 1.5465625 0 0 Z " fill="#FE1411" transform="translate(374,226)"/>
<path d="M0 0 C5.93846017 3.80848615 8.96914983 8.73791287 12 15 C12.495 15.99 12.495 15.99 13 17 C14.08987391 27.01580326 12.76340044 34.65957249 7 43 C3.08287684 47.51631779 -1.36635289 50.12211763 -7 52 C-8.66610636 52.04321313 -10.33411904 52.0511704 -12 52 C-12.13487595 49.22754986 -12.23400807 46.46162912 -12.3125 43.6875 C-12.35439453 42.90181641 -12.39628906 42.11613281 -12.43945312 41.30664062 C-12.48642848 39.09879882 -12.48078405 37.15692247 -12 35 C-9.54296875 33.08203125 -9.54296875 33.08203125 -7 32 C-5.40383257 28.80766515 -5.48533886 25.46538503 -6 22 C-8.57250484 18.65574371 -10.62748893 17.18300148 -14.8125 16.625 C-18.14059366 16.76273055 -18.14059366 16.76273055 -20.875 19 C-23.23580148 22.33289621 -23.58449805 23.99110331 -23.6640625 27.9375 C-23.10123721 30.29309144 -23.10123721 30.29309144 -20.48046875 32.19921875 C-17.05302373 36.06926297 -17.41641902 38.83712138 -17.6875 43.8125 C-17.71005859 44.60076172 -17.73261719 45.38902344 -17.75585938 46.20117188 C-17.81445839 48.13493929 -17.90413173 50.06772167 -18 52 C-24.78247784 52.40418836 -28.66042485 49.94173515 -34 46 C-39.38412307 41.07673089 -42.60362549 35.86244935 -43.3515625 28.57421875 C-43.7138869 19.08704044 -42.59376697 12.17298107 -36.203125 4.9765625 C-25.60928997 -5.0663931 -12.9272605 -7.09341987 0 0 Z " fill="#FEFCFB" transform="translate(265,272)"/>
<path d="M0 0 C2.34375 0.8203125 2.34375 0.8203125 4.34375 2.8203125 C4.890625 5.06640625 4.890625 5.06640625 4.34375 7.8203125 C2.35336951 10.15224228 -0.01291679 11.97898541 -2.40625 13.8828125 C-3.79702178 15.04228112 -5.18500747 16.20509907 -6.5703125 17.37109375 C-7.26415039 17.95197754 -7.95798828 18.53286133 -8.67285156 19.13134766 C-43.8065807 49.04950843 -63.28736279 94.56433959 -67.65625 139.8203125 C-67.74245471 141.27949303 -67.82029284 142.73918709 -67.890625 144.19921875 C-67.92647705 144.92858643 -67.9623291 145.6579541 -67.99926758 146.40942383 C-68.08880204 148.45714861 -68.15257827 150.50595223 -68.21484375 152.5546875 C-68.65625 155.8203125 -68.65625 155.8203125 -70.03125 157.78515625 C-71.65625 158.8203125 -71.65625 158.8203125 -74.21875 158.6328125 C-76.65625 157.8203125 -76.65625 157.8203125 -78.65625 155.8203125 C-83.79864253 115.14866252 -63.87296854 68.8065907 -39.65625 37.0703125 C-10.23759473 -0.69254317 -10.23759473 -0.69254317 0 0 Z " fill="#F8F9FB" transform="translate(105.65625,66.1796875)"/>
<path d="M0 0 C4.53942321 4.11964859 7.61292455 8.50124011 8.30078125 14.71875 C8.34165585 24.41965445 8.34165585 24.41965445 5 28 C3.02 28.495 3.02 28.495 1 29 C0.01 22.565 0.01 22.565 -1 16 C-2.32 16 -3.64 16 -5 16 C-4.80470703 17.44632812 -4.80470703 17.44632812 -4.60546875 18.921875 C-4.46753906 20.18515625 -4.32960938 21.4484375 -4.1875 22.75 C-4.03667969 24.00296875 -3.88585937 25.2559375 -3.73046875 26.546875 C-4 30 -4 30 -6.28125 32.40625 C-9.25631965 34.15025635 -11.58632388 34.68244873 -15 35 C-19.74170719 30.41634972 -20.16749853 25.25471501 -21 19 C-22.32 19 -23.64 19 -25 19 C-24.94779297 20.44632812 -24.94779297 20.44632812 -24.89453125 21.921875 C-24.86746094 23.18515625 -24.84039062 24.4484375 -24.8125 25.75 C-24.76029297 27.62945312 -24.76029297 27.62945312 -24.70703125 29.546875 C-25.01380861 33.16275751 -25.36364089 34.55713514 -28 37 C-31.4375 37.5 -31.4375 37.5 -35 37 C-37.97577541 34.76681335 -38.89754605 33.40015034 -39.828125 29.765625 C-40.03695313 28.02539062 -40.03695313 28.02539062 -40.25 26.25 C-40.39953125 25.07953125 -40.5490625 23.9090625 -40.703125 22.703125 C-40.80109375 21.81109375 -40.8990625 20.9190625 -41 20 C-41.99 20 -42.98 20 -44 20 C-44.33 24.62 -44.66 29.24 -45 34 C-50 33 -50 33 -51.36328125 31.57421875 C-54.41713171 25.50421969 -55.03034673 19.71533003 -54 13 C-52.13182625 7.9823829 -48.7638459 3.95079612 -44.28515625 1.02734375 C-32.12269733 -4.44056513 -11.68153738 -7.91106096 0 0 Z " fill="#F8C600" transform="translate(377,389)"/>
<path d="M0 0 C5.08276169 3.59512412 9.37089116 7.87394702 11.5625 13.8125 C12.02272633 16.88067555 12.21723481 19.76886789 11.5625 22.8125 C10.03515625 24.578125 10.03515625 24.578125 8.5625 25.8125 C7.55716333 24.19079621 6.55838093 22.56502763 5.5625 20.9375 C5.005625 20.03257812 4.44875 19.12765625 3.875 18.1953125 C2.5625 15.8125 2.5625 15.8125 2.5625 13.8125 C0.9125 13.8125 -0.7375 13.8125 -2.4375 13.8125 C-1.98408132 15.08509511 -1.52454773 16.35551243 -1.0625 17.625 C-0.80726563 18.33269531 -0.55203125 19.04039062 -0.2890625 19.76953125 C0.5890769 22.06023359 0.5890769 22.06023359 2.5625 24.8125 C3.42443761 30.63057886 3.42443761 30.63057886 1.39453125 33.4140625 C-0.98307353 35.60219235 -2.66382055 36.84383281 -5.9453125 36.7109375 C-9.11988539 35.566499 -9.8987548 34.29760599 -11.625 31.4375 C-12.35783203 30.25027344 -12.35783203 30.25027344 -13.10546875 29.0390625 C-13.54503906 28.30429687 -13.98460937 27.56953125 -14.4375 26.8125 C-15.0975 25.8225 -15.7575 24.8325 -16.4375 23.8125 C-17.4275 24.1425 -18.4175 24.4725 -19.4375 24.8125 C-18.98888351 27.86309211 -18.33632897 30.00270153 -16.875 32.75 C-15.27432283 36.16013832 -14.77769021 38.10106993 -15.4375 41.8125 C-18.08882918 44.1519081 -20.02368116 44.74493774 -23.5 45.3125 C-26.4375 44.8125 -26.4375 44.8125 -28.5625 42.8125 C-30.78536028 39.25592356 -32.66561669 35.61073922 -34.4375 31.8125 C-35.9225 32.3075 -35.9225 32.3075 -37.4375 32.8125 C-36.65574485 37.65938192 -35.03905722 42.1891367 -33.4375 46.8125 C-37.90654004 46.63724353 -39.89853916 46.32696262 -43.1875 43.1875 C-47.1799236 37.62709486 -49.15635052 32.22411018 -48.90625 25.3671875 C-47.73756142 18.99783474 -43.68711621 14.39473507 -38.5 10.75 C-13.29039746 -4.59122821 -13.29039746 -4.59122821 0 0 Z " fill="#F8C800" transform="translate(132.4375,267.1875)"/>
<path d="M0 0 C1.92779297 -0.03673828 1.92779297 -0.03673828 3.89453125 -0.07421875 C12.6153024 -0.10105189 19.32411784 0.64794134 26.125 6.375 C26.66125 7.035 27.1975 7.695 27.75 8.375 C28.306875 9.035 28.86375 9.695 29.4375 10.375 C31.9288269 14.17130766 31.9324007 17.84531306 32 22.3125 C32.02578125 23.33214844 32.0515625 24.35179687 32.078125 25.40234375 C31.59836335 29.74875586 29.7969006 32.3280994 26.75 35.375 C25.76 35.045 24.77 34.715 23.75 34.375 C23.76160156 33.68792969 23.77320313 33.00085938 23.78515625 32.29296875 C23.79417969 31.39191406 23.80320312 30.49085938 23.8125 29.5625 C23.82410156 28.66917969 23.83570313 27.77585938 23.84765625 26.85546875 C23.86009967 24.24086209 23.86009967 24.24086209 22.75 21.375 C21.76 21.375 20.77 21.375 19.75 21.375 C19.71132813 22.71304688 19.71132813 22.71304688 19.671875 24.078125 C19.58679688 25.83382812 19.58679688 25.83382812 19.5 27.625 C19.45359375 28.78515625 19.4071875 29.9453125 19.359375 31.140625 C18.65521039 34.8781141 17.69150278 36.05276096 14.75 38.375 C11.92116253 39.78941874 9.87623255 39.69400332 6.75 39.375 C3.26919853 36.06741377 3.27706138 32.75952586 3.0625 28.125 C2.99675781 26.86171875 2.93101562 25.5984375 2.86328125 24.296875 C2.80720703 22.85054687 2.80720703 22.85054687 2.75 21.375 C1.43 21.705 0.11 22.035 -1.25 22.375 C-1.28738281 23.19484375 -1.32476562 24.0146875 -1.36328125 24.859375 C-1.42902344 25.93703125 -1.49476563 27.0146875 -1.5625 28.125 C-1.62050781 29.19234375 -1.67851562 30.2596875 -1.73828125 31.359375 C-2.28895879 34.60458921 -2.91078361 36.08497274 -5.25 38.375 C-8.7758588 38.82374566 -11.19458537 38.88281171 -14.42578125 37.328125 C-17.11395549 34.44999412 -16.9229684 31.43753828 -17 27.6875 C-17.02964844 26.98560547 -17.05929687 26.28371094 -17.08984375 25.56054688 C-17.16037033 23.83264576 -17.20747068 22.1038168 -17.25 20.375 C-18.57 20.705 -19.89 21.035 -21.25 21.375 C-21.58 25.665 -21.91 29.955 -22.25 34.375 C-27.25 32.375 -27.25 32.375 -28.54296875 30.6796875 C-29.49925742 27.56250344 -29.55198907 24.75838745 -29.5625 21.5 C-29.57925781 20.30632812 -29.59601563 19.11265625 -29.61328125 17.8828125 C-29.05271891 12.47007073 -27.07450401 8.58341507 -22.875 5.125 C-22.02808594 4.40570313 -22.02808594 4.40570313 -21.1640625 3.671875 C-14.6452864 -0.7449284 -7.57773595 0.00751014 0 0 Z " fill="#F8C800" transform="translate(395.25,177.625)"/>
<path d="M0 0 C1.22460938 -0.01611328 2.44921875 -0.03222656 3.7109375 -0.04882812 C13.71729994 -0.05418485 23.81763492 0.91639036 31.25 8.3125 C37.87887376 16.83105271 39.0809455 23.54531892 38.25 34.3125 C37.05226406 39.18557422 35.30103828 42.33653588 31.625 45.75 C27.92351746 47.46364933 24.52667887 48.25934387 20.51953125 48.91796875 C18.09496739 49.2813583 18.09496739 49.2813583 15.25 50.3125 C13.58631742 50.43016176 11.91779197 50.48759083 10.25 50.5 C9.38375 50.51417969 8.5175 50.52835938 7.625 50.54296875 C5.25 50.3125 5.25 50.3125 2.25 48.3125 C0.22080157 48.56973969 0.22080157 48.56973969 -1.75 49.3125 C-6.36065603 50.84938534 -10.18523737 51.06086474 -14.625 48.9375 C-15.65625 48.40125 -16.6875 47.865 -17.75 47.3125 C-19.26338897 46.9657377 -20.78538233 46.65518192 -22.3125 46.375 C-26.38639366 45.53283375 -28.82690541 44.40754133 -31.75 41.3125 C-34.92064275 36.39253711 -34.75 34.61789998 -34.75 28.3125 C-47.125 28.8075 -47.125 28.8075 -59.75 29.3125 C-59.75 27.6625 -59.75 26.0125 -59.75 24.3125 C-57.19276771 23.03388385 -55.38262898 23.19913391 -52.5234375 23.21484375 C-51.4921875 23.21806641 -50.4609375 23.22128906 -49.3984375 23.22460938 C-47.77808594 23.23717773 -47.77808594 23.23717773 -46.125 23.25 C-44.49304688 23.25676758 -44.49304688 23.25676758 -42.828125 23.26367188 C-40.13536211 23.27548224 -37.44270812 23.29195222 -34.75 23.3125 C-34.61722656 22.68601563 -34.48445313 22.05953125 -34.34765625 21.4140625 C-34.17105469 20.59679687 -33.99445313 19.77953125 -33.8125 18.9375 C-33.55146484 17.71933594 -33.55146484 17.71933594 -33.28515625 16.4765625 C-32.75 14.3125 -32.75 14.3125 -31.75 12.3125 C-43.37860259 13.62965429 -43.37860259 13.62965429 -54.6015625 16.82421875 C-57.2505147 17.42625334 -59.14644154 16.99307932 -61.75 16.3125 C-61.75 14.9925 -61.75 13.6725 -61.75 12.3125 C-60.41809481 11.85003292 -59.0843693 11.39280845 -57.75 10.9375 C-57.0075 10.68226563 -56.265 10.42703125 -55.5 10.1640625 C-47.66851055 7.7389706 -40.80121717 6.97319948 -32.640625 6.921875 C-27.10115947 6.76156892 -24.29201892 5.70947214 -19.75 2.3125 C-13.20584065 -0.30711997 -6.95299034 -0.0180691 0 0 Z M-23.80859375 12.12890625 C-24.26363281 12.70511719 -24.71867187 13.28132812 -25.1875 13.875 C-25.66058594 14.45378906 -26.13367188 15.03257812 -26.62109375 15.62890625 C-29.11179428 19.3434112 -28.9147474 22.91335432 -28.9375 27.25 C-28.95167969 28.47589844 -28.96585937 29.70179688 -28.98046875 30.96484375 C-28.7193917 34.9780618 -28.7193917 34.9780618 -26.75 38.3125 C-25.1 38.9725 -23.45 39.6325 -21.75 40.3125 C-21.42 36.0225 -21.09 31.7325 -20.75 27.3125 C-19.43 26.9825 -18.11 26.6525 -16.75 26.3125 C-16.71132813 27.88451172 -16.71132813 27.88451172 -16.671875 29.48828125 C-16.61559142 30.86722902 -16.55824412 32.24613365 -16.5 33.625 C-16.48582031 34.31529297 -16.47164063 35.00558594 -16.45703125 35.71679688 C-16.30049052 38.95719002 -16.18281109 40.84910483 -13.92578125 43.265625 C-10.69458537 44.82031171 -8.2758588 44.76124566 -4.75 44.3125 C-1.56595782 41.19541198 -1.29837207 38.40254603 -1.0625 34.0625 C-0.99675781 32.98484375 -0.93101562 31.9071875 -0.86328125 30.796875 C-0.82589844 29.97703125 -0.78851563 29.1571875 -0.75 28.3125 C0.57 27.9825 1.89 27.6525 3.25 27.3125 C3.30607422 28.75882813 3.30607422 28.75882813 3.36328125 30.234375 C3.42902344 31.49765625 3.49476563 32.7609375 3.5625 34.0625 C3.62050781 35.31546875 3.67851562 36.5684375 3.73828125 37.859375 C4.25725145 41.36143346 4.72434949 42.88329438 7.25 45.3125 C10.85991153 45.86183436 12.77753823 45.54348131 16.0625 43.9375 C18.34605332 42.49648646 18.34605332 42.49648646 19.25 40.3125 C19.47950319 38.108136 19.66075933 35.89857827 19.8125 33.6875 C19.89628906 32.49898437 19.98007812 31.31046875 20.06640625 30.0859375 C20.15728516 28.71308594 20.15728516 28.71308594 20.25 27.3125 C21.24 27.3125 22.23 27.3125 23.25 27.3125 C24.29976964 30.46180893 24.35131595 32.70064456 24.3125 36 C24.30347656 36.99386719 24.29445313 37.98773438 24.28515625 39.01171875 C24.27355469 39.77097656 24.26195312 40.53023437 24.25 41.3125 C27.50479594 40.60114254 29.11989123 39.94977752 31.25 37.3125 C33.26438591 31.26934227 32.85083094 24.60316796 31.25 18.5 C27.26297631 12.145681 22.45966368 8.35574845 15.25 6.3125 C10.46511595 5.88028412 5.67757436 5.94227393 0.875 5.9375 C-1.05859375 5.90076172 -1.05859375 5.90076172 -3.03125 5.86328125 C-11.48896394 5.8372308 -17.28115629 6.36940261 -23.80859375 12.12890625 Z " fill="#FC0701" transform="translate(394.75,171.6875)"/>
<path d="M0 0 C5.44572236 5.74891033 8.93246045 12.89248669 9.26171875 20.86328125 C8.96013802 26.54305173 7.58152947 31.3259137 3.69921875 35.55078125 C0.53920197 37.4055737 -2.48804266 38.46339505 -5.984375 39.51171875 C-8.38493685 40.23017362 -8.38493685 40.23017362 -11.17578125 41.92578125 C-15.60553625 43.86379906 -20.57811079 44.14094666 -25.19921875 42.53515625 C-25.85148437 42.4371875 -26.50375 42.33921875 -27.17578125 42.23828125 C-27.79066406 42.7075 -28.40554688 43.17671875 -29.0390625 43.66015625 C-31.91105108 45.78133246 -33.83596767 45.5742085 -37.36328125 45.48828125 C-38.42933594 45.4728125 -39.49539063 45.45734375 -40.59375 45.44140625 C-43.17578125 45.23828125 -43.17578125 45.23828125 -44.17578125 44.23828125 C-45.73615646 44.10604606 -47.29945156 44.00759596 -48.86328125 43.92578125 C-53.66575362 43.45992088 -56.5455314 42.60922754 -60.17578125 39.23828125 C-62.77894745 35.2372734 -64.70949796 31.01768497 -65.17578125 26.23828125 C-65.23894531 25.59375 -65.30210937 24.94921875 -65.3671875 24.28515625 C-65.75325781 17.16153634 -64.11315071 10.71273181 -59.4453125 5.19140625 C-52.20197575 -1.57482449 -43.90465394 -4.24081128 -34.23828125 -5.51171875 C-33.40876953 -5.63675781 -32.57925781 -5.76179688 -31.72460938 -5.890625 C-20.15059651 -7.52735409 -9.58039672 -7.75719734 0 0 Z M-35.42578125 0.48828125 C-36.16989258 0.59744873 -36.91400391 0.70661621 -37.68066406 0.8190918 C-44.30166598 1.94048539 -50.56093782 4.03195608 -55.05078125 9.23828125 C-59.53323652 15.56645339 -59.97336848 20.52827132 -59.17578125 28.23828125 C-58.31122762 31.26188232 -57.3679207 33.94564257 -55.17578125 36.23828125 C-53.52578125 36.56828125 -51.87578125 36.89828125 -50.17578125 37.23828125 C-49.84578125 32.61828125 -49.51578125 27.99828125 -49.17578125 23.23828125 C-48.18578125 23.23828125 -47.19578125 23.23828125 -46.17578125 23.23828125 C-46.0778125 24.1303125 -45.97984375 25.02234375 -45.87890625 25.94140625 C-45.729375 27.111875 -45.57984375 28.28234375 -45.42578125 29.48828125 C-45.2865625 30.6484375 -45.14734375 31.80859375 -45.00390625 33.00390625 C-44.0733273 36.63843159 -43.15155666 38.0050946 -40.17578125 40.23828125 C-36.63328074 40.90505003 -36.63328074 40.90505003 -33.17578125 40.23828125 C-30.53942214 37.79541639 -30.18958986 36.40103876 -29.8828125 32.78515625 C-29.91761719 31.5321875 -29.95242188 30.27921875 -29.98828125 28.98828125 C-30.01535156 27.725 -30.04242188 26.46171875 -30.0703125 25.16015625 C-30.10511719 24.1959375 -30.13992188 23.23171875 -30.17578125 22.23828125 C-28.85578125 22.23828125 -27.53578125 22.23828125 -26.17578125 22.23828125 C-25.99402344 23.14191406 -25.81226563 24.04554688 -25.625 24.9765625 C-25.37363281 26.15605469 -25.12226563 27.33554687 -24.86328125 28.55078125 C-24.61964844 29.72253906 -24.37601562 30.89429688 -24.125 32.1015625 C-23.21170625 35.11956614 -22.74713172 36.47725711 -20.17578125 38.23828125 C-16.57967518 38.16010503 -14.43092378 37.38249224 -11.30078125 35.61328125 C-8.86505179 33.35199452 -8.86505179 33.35199452 -8.80078125 29.92578125 C-9.1651929 26.34240002 -9.59538749 22.79319305 -10.17578125 19.23828125 C-8.85578125 19.23828125 -7.53578125 19.23828125 -6.17578125 19.23828125 C-5.51578125 23.52828125 -4.85578125 27.81828125 -4.17578125 32.23828125 C0.6432538 30.8306723 0.6432538 30.8306723 2.11328125 28.44140625 C3.93840112 22.78554028 3.69746181 16.35132052 1.26171875 10.92578125 C-1.66478161 5.8897188 -5.71702746 2.4962483 -10.86328125 -0.13671875 C-19.12366718 -1.69528213 -27.19152287 -0.78889324 -35.42578125 0.48828125 Z " fill="#FC0701" transform="translate(382.17578125,385.76171875)"/>
<path d="M0 0 C5.05476066 4.01130753 5.82272857 9.10657903 6.625 15.25 C7.93144421 29.33056538 7.93144421 29.33056538 5.984375 32.8203125 C2.7655345 34.73387516 -0.41486647 34.52993411 -4 34 C-6.78881046 33.11196601 -9.29667554 31.87588712 -11.875 30.5 C-12.56609863 30.14268799 -13.25719727 29.78537598 -13.96923828 29.41723633 C-20.82132592 25.76262975 -27.63490421 21.54764369 -32 15 C-32.3671875 12.50390625 -32.3671875 12.50390625 -32 10 C-24.11563952 1.90615168 -10.96594064 -2.02082375 0 0 Z " fill="#FE0400" transform="translate(340,105)"/>
<path d="M0 0 C9.03397648 0.27253337 19.32888631 3.33272912 26.125 9.5625 C27.25 12.5 27.25 12.5 27.125 15.5625 C20.85801843 24.81304457 8.66484382 31.45016381 -1.875 34.5625 C-4.87356432 35.05352087 -6.82062988 35.01499928 -9.875 34.5625 C-13.77270548 28.71594178 -12.40533565 19.83169236 -11.3046875 13.046875 C-8.24948751 -0.01008495 -8.24948751 -0.01008495 0 0 Z " fill="#FE0300" transform="translate(164.875,104.4375)"/>
<path d="M0 0 C0.495 2.475 0.495 2.475 1 5 C-4.37545712 8.1583073 -9.77690269 9.12570392 -15.875 10.1875 C-16.84953125 10.36474609 -17.8240625 10.54199219 -18.828125 10.72460938 C-21.21739995 11.15795826 -23.60785745 11.58282513 -26 12 C-26 12.66 -26 13.32 -26 14 C-20.01843636 12.80464573 -20.01843636 12.80464573 -14.25 10.875 C-11.6850404 9.87751571 -9.72867645 9.93675253 -7 10 C-6.65066406 10.85464844 -6.30132812 11.70929688 -5.94140625 12.58984375 C-5.25884766 14.24693359 -5.25884766 14.24693359 -4.5625 15.9375 C-4.11003906 17.03964844 -3.65757812 18.14179688 -3.19140625 19.27734375 C-2.25575392 21.86568916 -2.25575392 21.86568916 -1 23 C-0.95936168 24.66617115 -0.957279 26.33388095 -1 28 C-2.32 28.33 -3.64 28.66 -5 29 C-5.82518076 27.8002907 -6.63453185 26.58968837 -7.4375 25.375 C-7.88996094 24.70210938 -8.34242188 24.02921875 -8.80859375 23.3359375 C-10 21 -10 21 -11 15 C-14.96 15.99 -18.92 16.98 -23 18 C-22.01 20.64 -21.02 23.28 -20 26 C-19.34 26 -18.68 26 -18 26 C-17.67 23.36 -17.34 20.72 -17 18 C-15.68 18 -14.36 18 -13 18 C-10.90649311 21.4019487 -10.82057837 24.05272412 -11 28 C-17.90392147 31.60966452 -23.96921173 34.77219118 -32 34 C-34.29013653 30.5647952 -34.17842973 29.014669 -34 25 C-32.68 25.33 -31.36 25.66 -30 26 C-30 27.32 -30 28.64 -30 30 C-29.34 30 -28.68 30 -28 30 C-28.33 27.03 -28.66 24.06 -29 21 C-31.97 21.66 -34.94 22.32 -38 23 C-37.34 24.32 -36.68 25.64 -36 27 C-35.5625 30.4375 -35.5625 30.4375 -36 34 C-38.1727422 36.63016161 -39.94673788 38.47336894 -43 40 C-44.99960012 40.039992 -47.00047242 40.04346799 -49 40 C-49.33 39.34 -49.66 38.68 -50 38 C-48.35 37.34 -46.7 36.68 -45 36 C-44.9690625 34.1746875 -44.9690625 34.1746875 -44.9375 32.3125 C-44.92589844 31.62800781 -44.91429687 30.94351562 -44.90234375 30.23828125 C-45.01112226 27.74507785 -45.45888861 25.43287087 -46 23 C-44.41925436 22.18247697 -42.83528777 21.37118003 -41.25 20.5625 C-40.36828125 20.11003906 -39.4865625 19.65757812 -38.578125 19.19140625 C-36 18 -36 18 -33.734375 17.52734375 C-32.87585938 17.26630859 -32.87585938 17.26630859 -32 17 C-31.67 16.01 -31.34 15.02 -31 14 C-33.75116234 14.95509784 -36.50092088 15.91393982 -39.25 16.875 C-40.02730469 17.14441406 -40.80460938 17.41382813 -41.60546875 17.69140625 C-42.35957031 17.95566406 -43.11367187 18.21992188 -43.890625 18.4921875 C-44.92751465 18.85352783 -44.92751465 18.85352783 -45.98535156 19.22216797 C-48.05383183 19.97557009 -48.05383183 19.97557009 -50.11621094 21.11767578 C-52.4818122 22.22566995 -53.59187151 21.86004589 -56 21 C-56 20.34 -56 19.68 -56 19 C-13.70580614 -2.32740104 -13.70580614 -2.32740104 0 0 Z " fill="#FEFCF2" transform="translate(174,368)"/>
<path d="M0 0 C4.69618212 0.2846171 7.03896881 2.47705951 10.3515625 5.52734375 C14.59532465 9.31857203 17.49202623 9.41475652 22.95703125 9.328125 C27.97241879 8.78731299 32.35427284 6.87547075 37 5 C49.74386047 0.75204651 62.84062326 2.52897654 75 7.6875 C79.94157555 9.56711769 84.79743175 9.92982071 90 9 C94.02725123 7.07418663 97.53759606 4.65662947 100.5 1.30078125 C102 0 102 0 106 0 C105.77733271 5.45534866 104.56216887 8.43606091 100.80078125 12.421875 C96.04342383 16.59101252 91.69136568 18.37196978 85.29736328 18.24243164 C80.84086798 17.77215536 76.64275598 16.31346937 72.375 15 C56.92116353 10.55074101 43.47490458 11.11396708 28.1875 16.6875 C22.19231247 18.77471344 16.69008192 19.02989355 10.8125 16.4375 C6.20456049 13.82019036 1.94624872 10.22100556 0.41015625 4.9921875 C0.125 3.0625 0.125 3.0625 0 0 Z " fill="#FE0A00" transform="translate(197,200)"/>
<path d="M0 0 C11.84005642 -0.53192922 11.84005642 -0.53192922 14.71191406 1.43701172 C15.78613281 3.11669922 15.78613281 3.11669922 15.47363281 6.30419922 C15.24675781 7.23232422 15.01988281 8.16044922 14.78613281 9.11669922 C7.74723796 10.70183768 0.8506323 11.54453452 -6.33886719 12.05419922 C-21.19848152 13.26454355 -34.67498855 15.94602732 -48.7668457 20.86743164 C-50.10767212 21.32339722 -50.10767212 21.32339722 -51.47558594 21.78857422 C-52.26924561 22.06797852 -53.06290527 22.34738281 -53.88061523 22.63525391 C-56.66834339 23.21047625 -58.50157276 22.94127767 -61.21386719 22.11669922 C-61.87386719 21.45669922 -62.53386719 20.79669922 -63.21386719 20.11669922 C-63.15136719 17.67919922 -63.15136719 17.67919922 -62.21386719 15.11669922 C-45.38961327 3.59399047 -19.91154763 1.04959415 0 0 Z " fill="#F5F6F9" transform="translate(209.2138671875,26.88330078125)"/>
<path d="M0 0 C18.81 0 37.62 0 57 0 C57 0.66 57 1.32 57 2 C57.99 2.33 58.98 2.66 60 3 C62.70590114 7.05885172 62.65938585 10.23095349 62 15 C60.9027885 17.89091377 59.56408192 20.3117342 58 23 C56.68 23 55.36 23 54 23 C52.359375 20.98828125 52.359375 20.98828125 50.75 18.3125 C46.37048095 11.68226452 40.85106222 7.69336636 33 6 C24.08554713 4.79298599 17.43806913 7.03766775 10 12 C6.3989507 15.23885479 4.07258432 18.64567148 2 23 C1.01 23 0.02 23 -1 23 C-4.5005676 17.96793407 -5.44321909 14.44412027 -5.43359375 8.33203125 C-4.90987071 5.5152506 -3.95100169 4.07502625 -2 2 C-1.34 2 -0.68 2 0 2 C0 1.34 0 0.68 0 0 Z " fill="#FF0302" transform="translate(222,263)"/>
<path d="M0 0 C0.495 2.475 0.495 2.475 1 5 C-1.85086906 7.38448171 -4.01209702 8.46751966 -7.66015625 9.1328125 C-8.53607422 9.29910156 -9.41199219 9.46539062 -10.31445312 9.63671875 C-11.67473633 9.87841797 -11.67473633 9.87841797 -13.0625 10.125 C-14.86616422 10.45943738 -16.66956237 10.79531372 -18.47265625 11.1328125 C-19.26937744 11.27605957 -20.06609863 11.41930664 -20.88696289 11.56689453 C-23.1752658 11.99214546 -23.1752658 11.99214546 -26 13 C-26 13.66 -26 14.32 -26 15 C-25.236875 14.505 -24.47375 14.01 -23.6875 13.5 C-18.88323938 11.54572449 -14.12663496 10.97789224 -9 12 C-6.46987825 14.54655112 -6.03191776 15.75377729 -5.5625 19.375 C-6.08353969 23.69218601 -7.21501951 25.68813131 -10 29 C-15.23802982 32.85960092 -20.53547145 34.30783469 -27 34 C-27 33.01 -27 32.02 -27 31 C-26.38511719 30.81824219 -25.77023438 30.63648438 -25.13671875 30.44921875 C-24.32847656 30.19785156 -23.52023438 29.94648438 -22.6875 29.6875 C-21.48673828 29.32205078 -21.48673828 29.32205078 -20.26171875 28.94921875 C-17.81950367 27.92424765 -16.61417584 27.08661756 -15 25 C-14.22186348 22.96658113 -14.22186348 22.96658113 -13.8125 20.8125 C-13.544375 19.554375 -13.27625 18.29625 -13 17 C-14.39809472 17.25890643 -15.79342142 17.53277461 -17.1875 17.8125 C-17.96480469 17.96332031 -18.74210937 18.11414063 -19.54296875 18.26953125 C-22.52452219 19.15593903 -24.52995033 20.08288629 -27 22 C-28.75292689 25.20469101 -28.75292689 25.20469101 -30.0625 28.875 C-32.11370029 34.22743953 -34.04791138 39.00019803 -38.9375 42.3125 C-41.38426526 43.12808842 -43.4376191 43.14235449 -46 43 C-44.64387109 40.09400947 -43.04656224 37.68376423 -41.125 35.125 C-37.13036261 29.27990558 -35.643502 22.79636416 -34 16 C-38.77927962 16.84079919 -42.97668017 17.83064994 -47.25 20.1875 C-50.0084601 21.68258537 -50.75113127 22.02073906 -54 21.75 C-54.66 21.5025 -55.32 21.255 -56 21 C-53.28238035 18.04081415 -50.93097489 16.2529843 -47.24609375 14.66796875 C-46.31821045 14.26497559 -45.39032715 13.86198242 -44.43432617 13.44677734 C-43.44537354 13.03121582 -42.4564209 12.6156543 -41.4375 12.1875 C-40.41696533 11.7538916 -39.39643066 11.3202832 -38.3449707 10.87353516 C-35.23685618 9.56498247 -32.12078811 8.27800372 -29 7 C-28.08412109 6.62278809 -27.16824219 6.24557617 -26.22460938 5.85693359 C-23.72108274 4.8384152 -21.20826164 3.84997524 -18.6875 2.875 C-17.95523193 2.58004639 -17.22296387 2.28509277 -16.46850586 1.98120117 C-10.90737009 -0.09749731 -5.90389524 -0.31705962 0 0 Z " fill="#FEFCF2" transform="translate(164,337)"/>
<path d="M0 0 C4.60890658 1.46950645 9.11618485 3.0276227 13.5625 4.9375 C20.46533169 7.77083345 27.75216449 9.30943787 35 11 C34.07960938 11.41185547 34.07960938 11.41185547 33.140625 11.83203125 C29.90201305 13.59908412 28.70661581 15.76962008 27 19 C26.44028818 24.1306917 27.4261399 28.18005343 29 33 C23.18239874 32.40811553 18.14358484 30.81515615 12.6875 28.75 C11.8524292 28.43861084 11.0173584 28.12722168 10.15698242 27.80639648 C4.24446108 25.56510494 -1.47110608 23.0842416 -7 20 C-7.58079748 9.11542497 -7.58079748 9.11542497 -4 4 C-1.8125 2.625 -1.8125 2.625 0 2 C0 1.34 0 0.68 0 0 Z " fill="#FE0501" transform="translate(147,245)"/>
<path d="M0 0 C-0.0625 1.75 -0.0625 1.75 -1 4 C-3.80448005 6.02232607 -6.91279537 7.45639768 -10 9 C-9.67 10.32 -9.34 11.64 -9 13 C-7.9378125 12.566875 -6.875625 12.13375 -5.78125 11.6875 C-4.35444735 11.12428843 -2.92734786 10.56182841 -1.5 10 C-0.80390625 9.71382813 -0.1078125 9.42765625 0.609375 9.1328125 C5.6254299 7.18212448 9.61307717 6.53157193 15 7 C17 9 17 9 17.0625 10.9375 C15.39487455 14.17465528 12.2937162 14.88948535 9 16 C6.04112391 16.71097023 3.06784707 17.2162245 0.0625 17.6875 C-0.71673828 17.81705078 -1.49597656 17.94660156 -2.29882812 18.08007812 C-4.19792168 18.3946519 -6.09879356 18.69845882 -8 19 C-7.75443359 20.08861328 -7.75443359 20.08861328 -7.50390625 21.19921875 C-7.03231525 23.82038731 -6.89786535 26.15697867 -6.9375 28.8125 C-6.94652344 29.60269531 -6.95554688 30.39289063 -6.96484375 31.20703125 C-6.97644531 31.79871094 -6.98804688 32.39039063 -7 33 C-9.66130399 31.98244259 -10.80516056 31.33315139 -12.265625 28.8359375 C-12.59046875 28.02382813 -12.9153125 27.21171875 -13.25 26.375 C-13.75273438 25.14910156 -13.75273438 25.14910156 -14.265625 23.8984375 C-14.50796875 23.27195312 -14.7503125 22.64546875 -15 22 C-23.65026231 24.45905869 -23.65026231 24.45905869 -32 27.75 C-34.95744785 28.98226994 -36.83998401 29.28727418 -40 29 C-39 26 -39 26 -36.12109375 24.28125 C-34.89856104 23.67659781 -33.67031632 23.08339902 -32.4375 22.5 C-31.80432861 22.18957764 -31.17115723 21.87915527 -30.51879883 21.55932617 C-27.13270412 19.92321162 -23.75666461 18.49136641 -20.1875 17.3125 C-19.135625 16.879375 -18.08375 16.44625 -17 16 C-16.25448165 13.97286699 -16.25448165 13.97286699 -16 12 C-16.85722656 12.28875 -17.71445313 12.5775 -18.59765625 12.875 C-29.9543058 16.56239016 -29.9543058 16.56239016 -36 16 C-35 13 -35 13 -32.40234375 11.38671875 C-25.84371583 8.17025522 -19.26082238 5.17880703 -12.4375 2.5625 C-11.77161865 2.30364014 -11.1057373 2.04478027 -10.41967773 1.77807617 C-6.82931852 0.44974807 -3.8325032 -0.30159814 0 0 Z " fill="#FEFCF2" transform="translate(140,308)"/>
<path d="M0 0 C3.63528179 2.72940251 6.83726103 5.37507086 9.2890625 9.25 C8.9765625 12 8.9765625 12 8.2890625 14.25 C3.52643301 13.92527526 -0.14267425 12.73438323 -4.5234375 10.8125 C-15.0767844 6.26522973 -25.69026561 4.33153888 -36.7109375 8.25 C-40.5234375 8.4375 -40.5234375 8.4375 -43.7109375 8.25 C-44.0409375 7.92 -44.3709375 7.59 -44.7109375 7.25 C-44.56373046 3.34901347 -44.35878761 1.00234206 -41.7734375 -2 C-28.23854394 -9.73422489 -12.93718344 -8.35138066 0 0 Z " fill="#FE0800" transform="translate(213.7109375,157.75)"/>
<path d="M0 0 C1.5390625 1.43359375 1.5390625 1.43359375 2.6640625 4.62109375 C2.5390625 7.43359375 2.5390625 7.43359375 0.5390625 9.43359375 C-2.77508626 9.73488 -5.13980129 9.54625756 -8.2890625 8.44140625 C-18.95174882 5.05350838 -31.09160297 7.89955754 -40.9453125 12.625 C-41.63109375 12.99496094 -42.316875 13.36492187 -43.0234375 13.74609375 C-46.4609375 15.43359375 -46.4609375 15.43359375 -49.4609375 15.18359375 C-50.1209375 14.93609375 -50.7809375 14.68859375 -51.4609375 14.43359375 C-51.54489472 11.07530498 -50.94441303 9.00905303 -48.77734375 6.4296875 C-35.60045916 -5.94859802 -15.75995227 -10.57988827 0 0 Z " fill="#FE0600" transform="translate(328.4609375,156.56640625)"/>
<path d="M0 0 C3.19445845 0.99138366 4.01174045 2.01970719 5.75 4.9375 C7.98852987 10.81671581 7.81929538 17.21439572 6.0625 23.1875 C1.61092284 29.25783249 -4.51644168 34.20474635 -11 38 C-11.66 38 -12.32 38 -13 38 C-12.95359375 37.27554688 -12.9071875 36.55109375 -12.859375 35.8046875 C-12.6292962 29.64186241 -12.68164139 25.79817623 -17 21 C-18.31817327 19.98009951 -19.64916735 18.976232 -21 18 C-20.26394531 17.54109375 -19.52789062 17.0821875 -18.76953125 16.609375 C-17.79371094 15.99578125 -16.81789063 15.3821875 -15.8125 14.75 C-14.84957031 14.14671875 -13.88664062 13.5434375 -12.89453125 12.921875 C-8.67997225 10.12354433 -5.03164009 7.47557957 -2.1875 3.25 C-1.1046875 1.64125 -1.1046875 1.64125 0 0 Z " fill="#FE0603" transform="translate(374,226)"/>
<path d="M0 0 C0.99 0 1.98 0 3 0 C4.47265625 1.72265625 4.47265625 1.72265625 6.0625 4.0625 C9.41340837 8.59944417 13.04573439 11.4579721 17.765625 14.4921875 C19.778579 15.85057954 21.35978583 17.22132619 23 19 C22.21625 19.5775 21.4325 20.155 20.625 20.75 C16.61115095 24.19044204 15.78488387 27.05813764 15.375 32.25 C15.30023438 33.14203125 15.22546875 34.0340625 15.1484375 34.953125 C15.09945312 35.62859375 15.05046875 36.3040625 15 37 C10.0078952 35.67812609 7.0335367 33.67316157 3.25 30.1875 C2.30640625 29.33542969 1.3628125 28.48335937 0.390625 27.60546875 C-4.29889493 22.49450504 -4.41869525 17.72244568 -4.3359375 11.02734375 C-3.84650768 6.61678436 -2.31142572 3.75606679 0 0 Z " fill="#FE1917" transform="translate(124,226)"/>
<path d="M0 0 C1.99837143 0.36411939 3.98042488 0.77440714 5.96508789 1.20678711 C6.64893555 1.34987305 7.3327832 1.49295898 8.03735352 1.64038086 C9.70208303 1.98962481 11.36503665 2.34731657 13.02758789 2.70678711 C12.58286133 3.25206055 12.13813477 3.79733398 11.67993164 4.35913086 C8.64345193 8.40546487 6.48393496 11.32438132 7.02758789 16.51928711 C7.55873402 19.55677901 8.56614458 21.99702764 10.02758789 24.70678711 C5.51101923 26.07744943 1.99292538 25.23598997 -2.53491211 24.26928711 C-3.68636719 24.07689453 -3.68636719 24.07689453 -4.86108398 23.88061523 C-10.32799626 22.70334642 -10.32799626 22.70334642 -12.1496582 19.88623047 C-14.0793511 14.89745076 -15.3444856 9.81682037 -13.09350586 4.71459961 C-9.62420263 -0.98742352 -6.60339002 -0.98164023 0 0 Z " fill="#FE1614" transform="translate(186.972412109375,257.293212890625)"/>
<path d="M0 0 C5.57894737 3.15789474 5.57894737 3.15789474 7 6 C7.57740169 13.04430065 7.57740169 13.04430065 5.1875 17 C3 19 3 19 0 19 C0 24.28 0 29.56 0 35 C-1.32 35.66 -2.64 36.32 -4 37 C-6 35 -6 35 -6.1953125 31.3046875 C-6.182009 29.82799892 -6.15814835 28.35137642 -6.125 26.875 C-6.11597656 26.12089844 -6.10695312 25.36679687 -6.09765625 24.58984375 C-6.0740687 22.72642746 -6.03819719 20.86317407 -6 19 C-6.61875 18.731875 -7.2375 18.46375 -7.875 18.1875 C-10 17 -10 17 -12 14 C-12.67226891 7.05322129 -12.67226891 7.05322129 -10.125 3.0625 C-6.76664891 -0.19707606 -4.63575359 -0.44574554 0 0 Z " fill="#FE0807" transform="translate(253,288)"/>
<path d="M0 0 C4.13293508 4.35633698 5.110107 6.95813969 5.1328125 12.9296875 C5.08898437 13.61289062 5.04515625 14.29609375 5 15 C4.96261719 15.67804688 4.92523438 16.35609375 4.88671875 17.0546875 C3.43246459 20.24507768 0.80900103 20.87501178 -2.3125 22.25 C-3.46363281 22.77078125 -4.61476563 23.2915625 -5.80078125 23.828125 C-9 25 -9 25 -13 25 C-12.94199219 24.26394531 -12.88398438 23.52789062 -12.82421875 22.76953125 C-12.38489202 16.42504469 -12.38489202 16.42504469 -15.375 11.0625 C-16.24125 10.381875 -17.1075 9.70125 -18 9 C-19.1640625 6.87109375 -19.1640625 6.87109375 -20 5 C-17.79906488 3.95983203 -15.59161931 2.94322969 -13.375 1.9375 C-12.75753906 1.64294922 -12.14007813 1.34839844 -11.50390625 1.04492188 C-7.26297982 -0.85233469 -4.46089994 -1.38956708 0 0 Z " fill="#FE2725" transform="translate(357,246)"/>
<path d="M0 0 C6.73805171 5.79785845 6.73805171 5.79785845 7.23046875 9.9375 C7.20919922 10.9584375 7.20919922 10.9584375 7.1875 12 C7.18105469 12.680625 7.17460937 13.36125 7.16796875 14.0625 C7 16 7 16 6 19 C6.66 19.33 7.32 19.66 8 20 C4.87647773 21.00465729 1.75095147 22.00292927 -1.375 23 C-2.26445312 23.28617187 -3.15390625 23.57234375 -4.0703125 23.8671875 C-4.92109375 24.13789063 -5.771875 24.40859375 -6.6484375 24.6875 C-7.43395996 24.93886719 -8.21948242 25.19023437 -9.02880859 25.44921875 C-11 26 -11 26 -13 26 C-12.67 24.96875 -12.34 23.9375 -12 22.875 C-10.6095693 17.86743436 -10.21676448 14.50845359 -12.6875 9.75 C-15.06595224 6.92157031 -16.49188148 5.97447737 -20 5 C-20 4.67 -20 4.34 -20 4 C-19.16855469 3.79503906 -18.33710938 3.59007812 -17.48046875 3.37890625 C-16.39378906 3.10949219 -15.30710937 2.84007812 -14.1875 2.5625 C-12.56908203 2.16224609 -12.56908203 2.16224609 -10.91796875 1.75390625 C-2.65919924 -0.37988561 -2.65919924 -0.37988561 0 0 Z " fill="#FE0502" transform="translate(338,252)"/>
<path d="M0 0 C5.46737191 1.74807129 10.75824848 3.65794081 16 6 C15.6409786 9.23119261 15.04705175 9.96212908 12.4375 12.0625 C8.81887331 16.42340908 9.5700864 20.5448741 10 26 C3.50857435 25.57664615 -1.33492989 23.08900201 -7 20 C-7.58079748 9.11542497 -7.58079748 9.11542497 -4 4 C-1.8125 2.625 -1.8125 2.625 0 2 C0 1.34 0 0.68 0 0 Z " fill="#FE1917" transform="translate(147,245)"/>
<path d="M0 0 C0.74258057 0.00016113 1.48516113 0.00032227 2.25024414 0.00048828 C9.92770929 0.1537311 22.72935178 0.72935178 28.375 6.375 C28 8.5 28 8.5 27.375 10.375 C23.48791338 9.96583299 20.03931859 9.59192036 16.3125 8.375 C11.2865247 6.89037512 6.1427147 6.91255713 0.9375 6.75 C-0.08021484 6.71132812 -1.09792969 6.67265625 -2.14648438 6.6328125 C-4.63914936 6.53919128 -7.1318195 6.45346007 -9.625 6.375 C-9.955 5.055 -10.285 3.735 -10.625 2.375 C-6.98529272 -0.05147152 -4.21799081 -0.00851069 0 0 Z " fill="#FE0C00" transform="translate(138.625,178.625)"/>
<path d="M0 0 C3.19445845 0.99138366 4.01174045 2.01970719 5.75 4.9375 C8.04494524 10.96488364 7.89770353 17.48643011 5.75 23.5 C4.03460403 25.95056568 2.52962994 27.42988486 0 29 C-0.93019697 26.20940908 -0.96916761 23.89564953 -0.8125 21 C-0.76607587 17.87217392 -0.79595256 17.26033639 -2.8125 14.6875 C-3.534375 14.130625 -4.25625 13.57375 -5 13 C-6.00959166 12.00968455 -7.01139491 11.01126652 -8 10 C-7.59007812 9.52949219 -7.18015625 9.05898437 -6.7578125 8.57421875 C-6.21898437 7.95160156 -5.68015625 7.32898438 -5.125 6.6875 C-4.59132813 6.07261719 -4.05765625 5.45773438 -3.5078125 4.82421875 C-1.8359553 2.86501788 -1.8359553 2.86501788 0 0 Z " fill="#FE2520" transform="translate(374,226)"/>
<path d="M0 0 C0.495 0.99 0.495 0.99 1 2 C-0.2065625 2.9590625 -0.2065625 2.9590625 -1.4375 3.9375 C-4.76031714 7.9086717 -5.04580371 10.93410968 -5 16 C-4.6587012 18.90021751 -4.6587012 18.90021751 -4 21 C-7.50722636 21 -9.26148088 19.79652536 -12.18359375 17.97265625 C-17.31337776 15.22573965 -23.349907 15.30830047 -29 16 C-32.06869917 17.14301295 -34.89264671 18.47257767 -37.78515625 20.00390625 C-38.51605469 20.33261719 -39.24695313 20.66132813 -40 21 C-40.66 20.67 -41.32 20.34 -42 20 C-40.25113898 18.08228343 -38.50095499 16.16580317 -36.75 14.25 C-36.25886719 13.71117187 -35.76773438 13.17234375 -35.26171875 12.6171875 C-33.84806143 11.07158883 -32.42438882 9.53570141 -31 8 C-30.28328125 7.21109375 -29.5665625 6.4221875 -28.828125 5.609375 C-27 4 -27 4 -24 4 C-22.52734375 5.5390625 -22.52734375 5.5390625 -20.9375 7.625 C-16.99439829 12.38041451 -12.40822567 15.12722017 -7 18 C-7.04640625 17.34773438 -7.0928125 16.69546875 -7.140625 16.0234375 C-7.38506001 10.10461838 -7.06978448 6.65118227 -3 2 C-2.01 1.34 -1.02 0.68 0 0 Z " fill="#F7C21E" transform="translate(146,245)"/>
<path d="M0 0 C0 1.32 0 2.64 0 4 C-1.13429443 3.98428955 -1.13429443 3.98428955 -2.29150391 3.96826172 C-5.73596845 3.92654584 -9.1803797 3.90062417 -12.625 3.875 C-13.81480469 3.85824219 -15.00460938 3.84148437 -16.23046875 3.82421875 C-17.96103516 3.81455078 -17.96103516 3.81455078 -19.7265625 3.8046875 C-20.78439941 3.79421387 -21.84223633 3.78374023 -22.93212891 3.77294922 C-26.23411712 4.01732683 -28.88420574 4.92210656 -32 6 C-34.875 5.625 -34.875 5.625 -37 5 C-36.875 3.1875 -36.875 3.1875 -36 1 C-25.71119039 -5.46041534 -10.83817675 -4.56344284 0 0 Z " fill="#FE0C00" transform="translate(165,197)"/>
<path d="M0 0 C10.12130872 0.6207736 22.31388286 2.70602336 29.8046875 10.0546875 C29.8046875 11.0446875 29.8046875 12.0346875 29.8046875 13.0546875 C27.24095383 14.01608763 25.48175591 14.32301235 22.90234375 13.30078125 C21.57699584 12.61139683 20.26340406 11.89876242 18.96484375 11.16015625 C14.14552333 8.69384942 9.25594902 7.690582 3.9296875 6.9296875 C2.20105469 6.67832031 2.20105469 6.67832031 0.4375 6.421875 C-0.43132812 6.30070313 -1.30015625 6.17953125 -2.1953125 6.0546875 C-2.57750017 4.39854093 -2.90926352 2.73011726 -3.1953125 1.0546875 C-2.1953125 0.0546875 -2.1953125 0.0546875 0 0 Z " fill="#FE0C00" transform="translate(336.1953125,207.9453125)"/>
<path d="M0 0 C1.8253125 0.0309375 1.8253125 0.0309375 3.6875 0.0625 C4.06968767 1.71864657 4.40145102 3.38707024 4.6875 5.0625 C2.92453963 6.82546037 0.48000221 6.60715371 -1.88793945 6.96386719 C-9.25960499 8.08147398 -15.49181853 9.55449819 -22.11328125 13.171875 C-24.66622352 14.2057486 -25.77548823 14.01460511 -28.3125 13.0625 C-28.1875 11.3125 -28.1875 11.3125 -27.3125 9.0625 C-20.3237871 3.01820776 -9.17005797 -0.15542471 0 0 Z " fill="#FE0D00" transform="translate(162.3125,207.9375)"/>
<path d="M0 0 C0.99 0 1.98 0 3 0 C4.82421875 1.96875 4.82421875 1.96875 6.6875 4.5 C7.31011719 5.3353125 7.93273437 6.170625 8.57421875 7.03125 C9.04472656 7.6809375 9.51523438 8.330625 10 9 C9.236875 9.5775 8.47375 10.155 7.6875 10.75 C3.25595877 14.44209342 3.25595877 14.44209342 1.70703125 19.796875 C1.74183594 20.77140625 1.77664062 21.7459375 1.8125 22.75 C1.83957031 23.73484375 1.86664063 24.7196875 1.89453125 25.734375 C1.92933594 26.48203125 1.96414062 27.2296875 2 28 C-1.66050259 24.52721549 -3.77234 22.51918848 -4.23828125 17.36328125 C-4.40890225 10.34986005 -3.68757042 5.99230193 0 0 Z " fill="#FC0403" transform="translate(124,226)"/>
<path d="M0 0 C2 2 2 2 2.37890625 4.421875 C2 7 2 7 0.27734375 8.765625 C-4.52648613 11.81312977 -8.23112532 14 -14 14 C-16 12 -16 12 -16.75 9.25 C-15.81726779 5.20816044 -14.79947648 4.79486348 -11.375 2.625 C-7.46989271 0.51203826 -4.51136264 -0.90227253 0 0 Z " fill="#F6F6F9" transform="translate(134,50)"/>
<path d="M0 0 C0.33 0 0.66 0 1 0 C1.2953006 8.56371729 -0.10857816 13.67749851 -6 20 C-9.15725756 22.10483837 -10.39850283 22.30888017 -14.0625 22.5625 C-17.66760043 22.77633446 -17.66760043 22.77633446 -21 24 C-22.66345582 24.12082534 -24.33220591 24.1753794 -26 24.1875 C-27.3303125 24.20876953 -27.3303125 24.20876953 -28.6875 24.23046875 C-31 24 -31 24 -33 22 C-31.37549999 20.37549999 -29.42451013 20.68341518 -27.1875 20.5 C-22.50566727 20.17835844 -22.50566727 20.17835844 -18 19 C-17.67 18.01 -17.34 17.02 -17 16 C-16.01 15.67 -15.02 15.34 -14 15 C-14.33 16.32 -14.66 17.64 -15 19 C-9.21774659 17.77088702 -9.21774659 17.77088702 -5 14 C-3.54375432 11.00184713 -2.72178233 7.97363103 -1.9375 4.75 C-1 1 -1 1 0 0 Z " fill="#A11010" transform="translate(185,406)"/>
<path d="M0 0 C0.33 0 0.66 0 1 0 C0.42657896 5.84889462 -0.60090301 9.68087291 -4.875 13.8125 C-7.42757056 15.23893649 -9.1197285 15.24002263 -12 15 C-12 12.875 -12 12.875 -11 10 C-9.09649613 8.33123315 -7.11389524 6.93010366 -5.0078125 5.52734375 C-2.87104924 3.9019071 -1.55738226 2.16821183 0 0 Z " fill="#F3B900" transform="translate(182,410)"/>
<path d="M0 0 C0.66 2.31 1.32 4.62 2 7 C1.01 7 0.02 7 -1 7 C-1.33 5.68 -1.66 4.36 -2 3 C-3.32 3 -4.64 3 -6 3 C-6 5.64 -6 8.28 -6 11 C-7.32 11 -8.64 11 -10 11 C-11.25664978 8.09399739 -12 6.20395416 -12 3 C-10.75336669 2.49166409 -9.50250613 1.99368855 -8.25 1.5 C-7.55390625 1.2215625 -6.8578125 0.943125 -6.140625 0.65625 C-4 0 -4 0 0 0 Z " fill="#F8D016" transform="translate(163,383)"/>
<path d="M0 0 C2.5625 0.1875 2.5625 0.1875 4.5625 2.1875 C4.00694444 6.74305556 4.00694444 6.74305556 2.5625 8.1875 C0.125 8.375 0.125 8.375 -2.4375 8.1875 C-3.0975 7.5275 -3.7575 6.8675 -4.4375 6.1875 C-3.71780303 0.28598485 -3.71780303 0.28598485 0 0 Z " fill="#F8BB00" transform="translate(250.4375,293.8125)"/>
<path d="M0 0 C0.33 2.97 0.66 5.94 1 9 C0.34 9 -0.32 9 -1 9 C-1.103125 8.360625 -1.20625 7.72125 -1.3125 7.0625 C-1.6528125 6.0415625 -1.6528125 6.0415625 -2 5 C-2.99 4.67 -3.98 4.34 -5 4 C-5.33 6.64 -5.66 9.28 -6 12 C-6.33 12 -6.66 12 -7 12 C-7.66 8.7 -8.32 5.4 -9 2 C-3.375 0 -3.375 0 0 0 Z " fill="#F8D220" transform="translate(145,389)"/>
<path d="M0 0 C-6.4150557 2.87940913 -11.97047248 4.5464821 -19 5 C-19 4.34 -19 3.68 -19 3 C-3.75460123 -1.87730061 -3.75460123 -1.87730061 0 0 Z " fill="#F9D52D" transform="translate(167,377)"/>
<path d="M0 0 C-1.20381448 2.49361571 -2.45428722 4.68143083 -4 7 C-4.23869279 11.85342006 -3.95595136 16.22024321 -3 21 C-5 20 -5 20 -6.125 17.375 C-7.26629531 12.97286095 -8.15523931 9.1988198 -5.94921875 5 C-2.53188004 0 -2.53188004 0 0 0 Z " fill="#FFBABA" transform="translate(180,257)"/>
<path d="M0 0 C-0.33 0.99 -0.66 1.98 -1 3 C-1.56847656 3.03738281 -2.13695312 3.07476562 -2.72265625 3.11328125 C-8.08435193 3.56978622 -12.1669508 4.63489082 -17 7 C-16.67 5.68 -16.34 4.36 -16 3 C-14.27318563 2.49193553 -12.54342021 1.99389533 -10.8125 1.5 C-9.84957031 1.2215625 -8.88664063 0.943125 -7.89453125 0.65625 C-5.14654124 0.03322392 -2.80401584 -0.12302812 0 0 Z " fill="#F9D530" transform="translate(154,346)"/>
<path d="M0 0 C0.33 0 0.66 0 1 0 C1.1799928 5.21979128 0.97094808 9.07262981 -1 14 C-1.99 14 -2.98 14 -4 14 C-3.71715982 12.22773547 -3.42339502 10.457212 -3.125 8.6875 C-2.96257812 7.70136719 -2.80015625 6.71523438 -2.6328125 5.69921875 C-2 3 -2 3 0 0 Z " fill="#B22009" transform="translate(185,406)"/>
<path d="M0 0 C3.81051307 1.75567028 5.31622521 3.04312923 7 7 C7.51921071 10.10962064 7.62745322 12.90194973 7 16 C4.5 19.0625 4.5 19.0625 2 21 C3.875 16.25 3.875 16.25 5 14 C5.84734307 8.06859854 3.29633568 4.63841521 0 0 Z " fill="#FFD5D5" transform="translate(302,261)"/>
<path d="M0 0 C0.33 0.99 0.66 1.98 1 3 C-0.32 4.32 -1.64 5.64 -3 7 C-3.99 6.67 -4.98 6.34 -6 6 C-2.25 1.125 -2.25 1.125 0 0 Z " fill="#A9100B" transform="translate(182,419)"/>
<path d="M0 0 C2.97 0.495 2.97 0.495 6 1 C3.01353231 2.99097846 0.40312738 3.94124926 -3 5 C-2.01 3.35 -1.02 1.7 0 0 Z " fill="#F8CA13" transform="translate(123,309)"/>
</svg>
